<?xml version="1.0" standalone="no"?>
<!DOCTYPE svg PUBLIC "-//W3C//DTD SVG 20010904//EN"
 "http://www.w3.org/TR/2001/REC-SVG-20010904/DTD/svg10.dtd">
<svg version="1.0" xmlns="http://www.w3.org/2000/svg"
 width="300.000000pt" height="300.000000pt" viewBox="0 0 300.000000 300.000000"
 preserveAspectRatio="xMidYMid meet">
<metadata>
Created by potrace 1.11, written by Peter Selinger 2001-2013
</metadata>
<g transform="translate(0.000000,300.000000) scale(0.100000,-0.100000)"
fill="#000000" stroke="none">
<path d="M1380 2994 c-397 -47 -675 -178 -936 -438 -227 -228 -364 -488 -420
-801 -24 -135 -24 -375 0 -510 56 -313 193 -573 420 -801 228 -227 488 -364
801 -420 135 -24 375 -24 510 0 313 56 573 193 801 420 227 228 364 488 420
801 24 135 24 375 0 510 -56 313 -193 573 -420 801 -228 227 -492 366 -801
419 -91 16 -310 27 -375 19z m-742 -1486 l2 -198 -40 0 -40 0 0 201 0 200 38
-3 37 -3 3 -197z m148 77 c5 -13 8 -13 27 0 30 21 90 19 118 -4 23 -19 24 -19
48 0 34 27 93 25 127 -4 26 -22 27 -28 32 -145 l5 -122 -42 0 -41 0 -1 88 c-1
113 -8 136 -40 140 -42 5 -53 -20 -57 -129 l-4 -99 -39 0 -38 0 -3 113 -3 112
-27 3 c-44 5 -58 -28 -58 -135 l0 -93 -40 0 -40 0 0 145 0 145 35 0 c22 0 38
-6 41 -15z m645 -14 c16 -19 19 -40 19 -116 0 -52 4 -105 10 -119 9 -25 8 -26
-29 -26 -22 0 -41 5 -43 10 -2 7 -17 5 -42 -5 -72 -30 -146 6 -146 72 0 50 34
79 109 94 54 10 62 14 59 33 -4 27 -58 35 -78 12 -14 -17 -47 -21 -69 -7 -10
6 -11 13 -2 29 22 42 51 54 125 50 57 -3 72 -8 87 -27z m273 8 l26 -20 0 20
c0 17 6 21 35 21 l35 0 0 -159 c0 -88 -4 -171 -10 -185 -16 -43 -56 -61 -133
-61 -65 0 -70 2 -98 33 -16 18 -29 39 -29 47 0 22 56 19 94 -5 24 -14 40 -17
62 -11 25 6 29 13 32 46 l3 38 -25 -16 c-97 -64 -205 56 -167 183 24 80 115
116 175 69z m367 4 c32 -19 54 -59 62 -115 l6 -38 -95 0 c-102 0 -115 -9 -74
-50 26 -26 45 -25 71 1 16 16 28 20 55 14 41 -7 42 -14 6 -53 -56 -60 -169
-50 -212 20 -17 27 -20 46 -18 102 4 64 6 70 41 102 31 28 44 34 83 34 25 0
59 -8 75 -17z m345 -16 c13 -16 24 -32 24 -36 0 -15 -64 -19 -80 -6 -26 23
-90 23 -90 0 0 -9 25 -22 71 -35 81 -24 109 -47 109 -91 0 -67 -91 -113 -178
-89 -41 11 -97 63 -86 81 10 17 70 10 89 -11 19 -21 60 -26 84 -11 26 17 3 38
-63 55 -79 22 -111 53 -102 101 3 16 18 41 33 54 24 20 34 23 96 19 61 -3 72
-7 93 -31z"/>
<path d="M1325 1433 c-49 -12 -63 -58 -21 -69 37 -9 66 12 66 46 0 30 -5 33
-45 23z"/>
<path d="M1626 1525 c-56 -56 -11 -172 56 -146 30 11 38 29 38 85 0 65 -54
100 -94 61z"/>
<path d="M1966 1524 c-31 -31 -20 -44 39 -44 47 0 54 2 48 18 -16 44 -57 57
-87 26z"/>
</g>
</svg>
